<svg xmlns="http://www.w3.org/2000/svg" width="174.083" height="124.309" viewBox="0 0 174.083 124.309">
  <g id="Gruppe_1" data-name="Gruppe 1" transform="translate(-102.438 -34.329)">
    <path id="WARHEIT" d="M39.913,9.485,36.758,44.449H24.578q-2.019-7.944-3.759-18.174-.2,2.2-.675,6.746T18.9,44.449H6.795L.518,9.485h9.654l1.655,12.347,1.58,11.785q.051-4.571.445-10.6T14.985,9.485H25.3q.135.78.526,3.7t1.037,7.974L28.5,34.453q.329-12.681,1.762-24.968Zm18.665,0L65,44.449h-9.97l-.69-6.19h-3.5l-.409,6.19H40.348L44.215,9.485Zm-4.657,22.63q-.907-5.927-1.9-14.721-.612,5.049-.981,8.727t-.495,5.994ZM65.948,9.485h7.034q7.034,0,9.53.506t4.083,2.58q1.585,2.07,1.624,6.589.036,4.107-1.053,5.515t-4.312,1.687q2.931.67,3.947,1.792t1.269,2.058q.253.936.29,5.141l.079,9.1h-9.06l-.155-11.476q-.038-2.794-.526-3.462t-2.521-.668l.236,15.605H66.659Zm10.029,6.074L76.1,23.4q1.664,0,2.326-.423t.631-2.748l-.026-1.938q-.023-1.68-.677-2.2T75.978,15.559Zm38.855-6.074-.185,34.965h-9.755V29.921h-2.942l.022,14.528H92.218L91.984,9.485h9.937l.019,12.653h2.954V9.485Zm3.989,0h16.57l-.114,7.1h-6.608l-.084,6.68h6.163l-.105,6.655H128.5l-.1,7.634h7.186l-.113,6.894H118.564Zm30.024,0-.808,34.965h-9.755l.626-34.965Zm24.005,0-.253,7.1h-5.879l-.908,27.863h-9.755l.763-27.863h-5.856l.173-7.1Z" transform="translate(102.438 34.329)"/>
    <text id="ODER" transform="translate(148 108)" font-size="34" font-family="Kanit-ExtraLight, Kanit" font-weight="200" letter-spacing="0.007em"><tspan x="0" y="0">ODER</tspan></text>
    <path id="PFLICHT" d="M4.166,9.18h9.874q4.005,0,6.136.58t3.173,1.679q1.042,1.1,1.367,2.664t.2,4.86L24.8,22.027q-.128,3.379-.939,4.93t-2.854,2.386q-2.044.833-5.291.833H13.057l-.626,14.4H2.459Zm9.544,5.971L13.321,24.1q.421.022.726.022,1.36,0,1.914-.621t.636-2.579l.121-2.887q.075-1.8-.509-2.339T13.71,15.151Zm17.4-5.971h16.6l-.189,6.988H40.7l-.2,6.665h6.095l-.185,6.73H40.293l-.456,15.014H29.865Zm31.787,0L62.34,37.4h6.043l-.121,7.181H52.226l.867-35.4Zm21.145,0-.335,35.4H73.734l.5-35.4Zm29.907,15.265h-9.876l0-6.12q0-2.658-.316-3.316t-1.389-.658q-1.214,0-1.542.8t-.332,3.465l-.024,16.441q0,2.6.326,3.4t1.487.8q1.11,0,1.453-.8t.342-3.739V30.242h9.9l.007,1.385q.028,5.536-.8,7.86t-3.7,4.086q-2.874,1.759-7.092,1.759-4.384,0-7.221-1.49t-3.741-4.114q-.905-2.62-.873-7.862l.064-10.34q.024-3.8.316-5.694t1.69-3.639q1.4-1.745,3.857-2.745t5.648-1q4.33,0,7.151,1.546t3.722,3.863q.9,2.32.923,7.238ZM142.935,9.18l.677,35.4h-9.972l-.216-15.014H130.46l.194,15.014h-9.972l-.289-35.4h9.8l.162,12.521h2.952l-.18-12.521Zm26.687,0,.224,6.988H164l.831,28.409h-9.972l-.7-28.409H148.35L148.2,9.18Z" transform="translate(102.969 104.531)"/>
  </g>
</svg>
