<svg xmlns="http://www.w3.org/2000/svg" width="2560" height="2560" viewBox="0 0 2560 2560">
  <g id="LOGO" transform="translate(2131 2128)">
    <g id="Gruppe_1" data-name="Gruppe 1" transform="translate(-1881.097 -1462.354)">
      <path id="WARHEIT" d="M424.406,9.485,390.458,385.7H259.4q-21.724-85.477-40.447-195.551-2.152,23.672-7.263,72.587T198.307,385.7H68.058L.518,9.485H104.394L122.2,142.338l17,126.806q.549-49.184,4.788-114.055t12.191-145.6H267.171q1.453,8.393,5.66,39.812t11.158,85.8L301.6,278.139q3.54-136.447,18.959-268.654Zm200.834,0,69.1,376.21H587.064l-7.424-66.6H541.98l-4.4,66.6H429.086L470.7,9.485Zm-50.109,243.5q-9.759-63.774-20.444-158.4-6.585,54.327-10.555,93.9t-5.326,64.5Zm129.41-243.5h75.685q75.685,0,102.542,5.445T926.7,42.69q17.055,22.273,17.474,70.9.387,44.191-11.33,59.341t-46.4,18.152q31.537,7.209,42.469,19.282t13.654,22.144q2.722,10.071,3.12,55.317l.85,97.915H849.057L847.39,262.258q-.409-30.063-5.66-37.251T814.6,217.819l2.539,167.909H712.191ZM812.452,74.841l1.323,84.369q17.9,0,25.028-4.551t6.789-29.568l-.28-20.853q-.247-18.077-7.284-23.672t-25.566-5.724ZM1230.53,9.485l-1.991,376.221H1123.576V229.375H1091.92l.237,156.32H987.2L984.687,9.485h106.921l.2,136.145H1123.6V9.485Zm42.921,0h178.292l-1.227,76.4h-71.1l-.9,71.876h66.313l-1.13,71.607h-66.1l-1.076,82.141h77.321l-1.216,74.179h-181.94Zm323.057,0-8.694,376.221H1482.85l6.736-376.221Zm258.292,0-2.722,76.4H1788.82l-9.77,299.8H1674.087l8.21-299.8h-63.01l1.861-76.4Z" transform="translate(102.438 34.329)"/>
      <text id="ODER" transform="translate(587.627 730.334)" font-size="358" font-family="Kanit-ExtraLight, Kanit" font-weight="200"><tspan x="0" y="0">ODER</tspan></text>
      <path id="PFLICHT" d="M20.826,16.324H127.07q43.094,0,66.023,6.241t34.141,18.066A57.9,57.9,0,0,1,241.943,69.3q3.5,16.829,2.152,52.293l-1.248,32.968q-1.377,36.358-10.1,53.046t-30.709,25.673q-21.993,8.963-56.931,8.963H116.493l-6.736,154.943H2.459ZM123.519,80.572l-4.186,96.291q4.53.237,7.812.237,14.634,0,20.595-6.682t6.843-27.75l1.3-31.064q.807-19.368-5.477-25.167t-26.889-5.864ZM310.742,16.324H489.357l-2.034,75.19H413.93l-2.152,71.715H477.36l-1.991,72.414H409.551l-4.907,161.55h-107.3Zm342.026,0L646.775,319.97H711.8l-1.3,77.267H537.949l9.329-380.9Zm227.519,0-3.6,380.9H769.374l5.38-380.9Zm321.8,164.25H1095.819V114.724q0-28.6-3.4-35.68t-14.946-7.08q-13.062,0-16.592,8.608t-3.572,37.283l-.258,176.9q0,27.976,3.508,36.584t16,8.608q11.943,0,15.634-8.608t3.68-40.231V242.95H1202.4l.075,14.9q.3,59.567-8.608,84.573t-39.812,43.965q-30.924,18.927-76.31,18.927-47.172,0-77.7-16.032t-40.253-44.266q-9.738-28.191-9.393-84.595l.689-111.258q.258-40.888,3.4-61.267t18.184-39.155q15.064-18.776,41.5-29.536t60.772-10.76q46.59,0,76.944,16.635t40.048,41.566q9.684,24.963,9.931,77.88Zm311.888-164.25,7.284,380.9h-107.3l-2.324-161.55h-31.892l2.087,161.55h-107.3l-3.11-380.9h105.448l1.743,134.725h31.763l-1.937-134.725Zm287.15,0,2.41,75.19h-62.9l8.942,305.679h-107.3l-7.532-305.679h-62.5l-1.614-75.19Z" transform="translate(127.096 779.577)"/>
    </g>
  </g>
</svg>
